<?xml version="1.0" encoding="UTF-8" standalone="no"?>
<!-- Created with Inkscape (http://www.inkscape.org/) -->

<svg
   width="2.6940455mm"
   height="5.6709714mm"
   viewBox="0 0 2.6940455 5.6709714"
   version="1.1"
   id="svg55404"
   sodipodi:docname="player_bot.svg"
   inkscape:version="1.1.1 (3bf5ae0d25, 2021-09-20)"
   xmlns:inkscape="http://www.inkscape.org/namespaces/inkscape"
   xmlns:sodipodi="http://sodipodi.sourceforge.net/DTD/sodipodi-0.dtd"
   xmlns="http://www.w3.org/2000/svg"
   xmlns:svg="http://www.w3.org/2000/svg">
  <sodipodi:namedview
     id="namedview55406"
     pagecolor="#ffffff"
     bordercolor="#111111"
     borderopacity="1"
     inkscape:pageshadow="0"
     inkscape:pageopacity="0"
     inkscape:pagecheckerboard="1"
     inkscape:document-units="mm"
     showgrid="false"
     inkscape:snap-nodes="false"
     inkscape:zoom="22.627417"
     inkscape:cx="16.727495"
     inkscape:cy="18.937203"
     inkscape:window-width="1366"
     inkscape:window-height="705"
     inkscape:window-x="-8"
     inkscape:window-y="-8"
     inkscape:window-maximized="1"
     inkscape:current-layer="layer1" />
  <defs
     id="defs55401" />
  <g
     inkscape:label="Layer 1"
     inkscape:groupmode="layer"
     id="layer1">
    <g
       id="g81164"
       transform="translate(-1.52485,-0.96953326)">
      <path
         id="rect69338"
         style="fill:#e9e9e9;fill-opacity:1;fill-rule:evenodd;stroke-width:0.0891853;stroke-linecap:round;stroke-linejoin:round;paint-order:fill markers stroke"
         d="m 2.9302501,3.2864538 c 0.6935874,0 1.2788479,0.1227712 1.2141003,0.5335958 L 3.8521301,5.6741922 c -0.063478,0.4027691 -0.2282926,0.9663126 -0.92188,0.9663126 -0.6935874,0 -0.7846644,-0.535835 -0.8677079,-0.9351059 L 1.6782872,3.8579121 C 1.5952437,3.4586412 2.2366627,3.2864538 2.9302501,3.2864538 Z"
         sodipodi:nodetypes="sssssss" />
      <path
         id="rect69338-3"
         style="fill:#f3f3f3;fill-opacity:1;fill-rule:evenodd;stroke-width:0.0857424;stroke-linecap:round;stroke-linejoin:round;paint-order:fill markers stroke"
         d="m 2.9435928,3.2912313 c 0.6865215,0 1.2658197,0.1146432 1.2017317,0.4982693 L 3.8560813,5.5208905 C 3.8096502,5.7988242 3.5203844,6.5368676 2.8353864,6.4906856 2.2737877,6.4528231 2.0903065,5.6782687 2.0764565,5.617488 L 1.669305,3.8307029 C 1.5844781,3.4584402 2.2570713,3.2912313 2.9435928,3.2912313 Z"
         sodipodi:nodetypes="sssssss" />
      <path
         id="path75711"
         style="fill:#e5e5e5;fill-opacity:1;fill-rule:evenodd;stroke-width:0;stroke-linecap:round;stroke-linejoin:round;paint-order:fill markers stroke"
         d="m 4.1449755,3.6899851 c 0.014393,0.2029136 -0.5467678,0.3858703 -1.2248461,0.3858703 -0.6780782,0 -1.2657717,-0.1327515 -1.2657718,-0.3361749 -1e-7,-0.2034235 0.5584608,-0.5232636 1.2365392,-0.5232636 0.6780784,0 1.2365392,0.2262958 1.2540787,0.4735682 z"
         sodipodi:nodetypes="sssss" />
      <path
         id="path75711-5"
         style="fill:#e1e1e1;fill-opacity:1;fill-rule:evenodd;stroke-width:0;stroke-linecap:round;stroke-linejoin:round;paint-order:fill markers stroke"
         d="m 4.0219689,3.4958716 c 0.1106531,0.073982 -0.5756807,0.2616131 -1.134381,0.2616131 -0.5587002,0 -1.1824092,-0.1231391 -1.0904795,-0.2194003 0.2192444,-0.2295748 0.5924675,-0.2406465 1.1511677,-0.2406465 0.5587004,0 0.7696738,-0.00483 1.0736928,0.1984337 z"
         sodipodi:nodetypes="sssss" />
      <rect
         style="fill:#e9e9e9;fill-opacity:1;fill-rule:evenodd;stroke:none;stroke-width:0.0811463;stroke-linecap:round;stroke-linejoin:round;paint-order:fill markers stroke"
         id="rect55458"
         width="2.6940455"
         height="2.4979851"
         x="1.52485"
         y="0.96953326"
         ry="1.2489926"
         rx="0.86312097" />
      <rect
         style="fill:#f3f3f3;fill-opacity:1;fill-rule:evenodd;stroke:none;stroke-width:0.0757367;stroke-linecap:round;stroke-linejoin:round;paint-order:fill markers stroke"
         id="rect55458-6"
         width="2.5144424"
         height="2.3314526"
         x="1.618781"
         y="1.0645723"
         ry="1.1657263"
         rx="0.82992399" />
      <rect
         style="fill:#3e3e3e;fill-opacity:1;fill-rule:evenodd;stroke:none;stroke-width:0.278984;stroke-linecap:round;stroke-linejoin:round;paint-order:fill markers stroke"
         id="rect57711"
         width="2.1707838"
         height="1.6785712"
         x="1.7795378"
         y="1.5902255"
         rx="0.69414538"
         ry="0.75946569" />
      <ellipse
         style="fill:#afffff;fill-opacity:1;fill-rule:evenodd;stroke:none;stroke-width:0.261538;stroke-linecap:round;stroke-linejoin:round;paint-order:fill markers stroke"
         id="path57087-6"
         cx="3.4639649"
         cy="2.2363603"
         rx="0.26458332"
         ry="0.33072916" />
      <ellipse
         style="fill:#afffff;fill-opacity:1;fill-rule:evenodd;stroke:none;stroke-width:0.261538;stroke-linecap:round;stroke-linejoin:round;paint-order:fill markers stroke"
         id="path57087-6-9"
         cx="2.2717505"
         cy="2.2338879"
         rx="0.26458332"
         ry="0.33072916" />
      <path
         style="fill:none;stroke:#afffff;stroke-width:0.1;stroke-linecap:round;stroke-linejoin:round;stroke-miterlimit:4;stroke-dasharray:none;stroke-opacity:1"
         d="m 2.6304312,2.8847731 c 0,0 0.2632661,0.223107 0.4930662,-0.00446"
         id="path68365" />
    </g>
  </g>
</svg>
